<?xml version="1.0" encoding="iso-8859-1"?>
<!DOCTYPE svg PUBLIC "-//W3C//DTD SVG 1.0//EN" "http://www.w3.org/TR/2001/REC-SVG-20010904/DTD/svg10.dtd">
<!-- Creator: CorelDRAW -->
<svg xmlns="http://www.w3.org/2000/svg" xmlns:odm="http://product.corel.com/CGS/11/cddns/" xml:space="preserve" width="8.5in" height="11in" shape-rendering="geometricPrecision" text-rendering="geometricPrecision" image-rendering="optimizeQuality" fill-rule="evenodd"
     viewBox="0 0 8500 11000">
 <g id="Layer 1">
  <path fill="#1F1A17" d="M688 4564l36 -66 -71 0 0 -43 84 0 30 -104 -114 0 0 -43 127 0 36 -77 63 0 -36 77 132 0 36 -77 63 0 -36 77 72 0 0 43 -85 0 -31 104 98 0 0 43 -111 0 -36 66 -63 0 36 -66 -131 0 -37 66 -62 0zm111 -109l132 0 31 -104 -132 0 -31 104z"/>
  <path fill="#1F1A17" d="M1365 4377l-76 0 0 -56c0,-16 -1,-26 -2,-30 -2,-4 -6,-6 -11,-6 -6,0 -10,2 -12,7 -2,5 -3,15 -3,32l0 148c0,16 1,26 3,31 2,5 5,7 11,7 6,0 10,-2 11,-7 2,-5 3,-16 3,-34l0 -40 76 0 0 13c0,33 -3,56 -7,70 -4,14 -13,26 -28,37 -15,10 -32,15 -54,15 -22,0 -40,-4 -55,-13 -14,-9 -24,-21 -28,-37 -5,-15 -7,-39 -7,-70l0 -94c0,-23 1,-40 2,-52 1,-11 6,-23 13,-33 7,-11 17,-19 29,-26 13,-6 28,-9 44,-9 22,0 41,5 55,15 15,9 24,21 29,35 4,14 7,36 7,66l0 31z"/>
  <path fill="#1F1A17" d="M1504 4295l-3 34c11,-24 26,-37 46,-39l0 93c-13,0 -23,2 -30,6 -6,3 -10,9 -11,16 -1,7 -2,23 -2,49l0 104 -73 0 0 -263 73 0z"/>
  <path fill="#1F1A17" d="M1669 4397l-68 0 0 -18c0,-20 2,-36 7,-47 4,-11 13,-21 25,-29 13,-9 30,-13 50,-13 25,0 43,5 56,14 12,10 20,22 22,36 3,14 4,42 4,86l0 132 -71 0 0 -24c-4,10 -10,17 -17,21 -7,5 -15,7 -25,7 -13,0 -24,-4 -35,-11 -10,-8 -16,-25 -16,-52l0 -22c0,-19 3,-33 9,-40 5,-7 19,-15 42,-25 23,-10 36,-17 38,-21 2,-3 2,-10 2,-21 0,-14 0,-23 -2,-27 -2,-4 -5,-6 -10,-6 -5,0 -8,1 -9,5 -1,3 -2,12 -2,27l0 28zm23 36c-11,9 -18,17 -20,23 -2,7 -3,16 -3,28 0,13 1,22 3,26 1,4 5,6 9,6 5,0 8,-2 9,-5 2,-3 2,-11 2,-24l0 -54z"/>
  <path fill="#1F1A17" d="M1924 4237l0 41c-15,0 -24,0 -26,2 -3,1 -4,6 -4,13l0 8 30 0 0 42 -17 0 0 215 -73 0 0 -215 -15 0 0 -42 15 0c0,-17 1,-29 2,-34 1,-6 4,-11 8,-16 4,-5 10,-8 18,-10 8,-3 19,-4 36,-4l26 0z"/>
  <path fill="#1F1A17" d="M2056 4260l0 41 20 0 0 42 -20 0 0 140c0,18 1,27 3,29 1,2 8,3 20,3l0 43 -29 0c-17,0 -29,-1 -36,-3 -7,-1 -13,-5 -19,-10 -5,-6 -8,-12 -10,-19 -1,-7 -2,-24 -2,-50l0 -133 -15 0 0 -42 15 0 0 -41 73 0z"/>
  <path fill="#1F1A17" d="M2282 4379l-65 0 0 -14c0,-13 0,-20 -2,-24 -1,-3 -4,-4 -9,-4 -4,0 -7,1 -9,4 -2,3 -3,7 -3,13 0,8 0,14 1,18 1,4 4,8 10,13 5,4 15,11 31,19 21,11 35,22 41,32 7,10 10,25 10,44 0,21 -2,38 -7,48 -5,11 -14,20 -26,26 -11,5 -26,8 -42,8 -19,0 -34,-3 -48,-9 -13,-6 -22,-15 -27,-26 -5,-11 -7,-27 -7,-49l0 -13 64 0 0 17c0,14 1,23 3,27 1,5 5,7 9,7 6,0 9,-2 11,-4 2,-3 3,-9 3,-18 0,-13 -1,-21 -4,-24 -2,-3 -17,-12 -42,-28 -21,-13 -34,-25 -39,-36 -5,-11 -7,-24 -7,-38 0,-21 3,-37 8,-47 5,-10 13,-17 25,-23 12,-5 26,-8 42,-8 16,0 29,2 40,7 12,4 20,10 26,17 6,8 10,14 11,20 1,7 2,16 2,30l0 15z"/>
  <rect fill="none" stroke="#FFFFFF" stroke-width="3" x="342" y="3896" width="2107" height="1001"/>
 </g>
</svg>
